<svg width="16" height="16" viewBox="0 0 16 16" fill="none" xmlns="http://www.w3.org/2000/svg">
<path d="M7.43574 4.633L8.00003 5.27752L8.56431 4.633C9.03476 4.09567 9.76586 3.74999 10.5213 3.74999C11.8526 3.74999 12.853 4.75249 12.853 5.99727C12.853 6.774 12.5007 7.54095 11.7158 8.47436C10.9229 9.41719 9.77452 10.4321 8.31635 11.7182L8.31527 11.7191L7.99814 11.9999L7.6843 11.7241C7.68401 11.7239 7.68372 11.7236 7.68343 11.7234C6.2255 10.4348 5.07734 9.41873 4.28446 8.47524C3.49934 7.541 3.14709 6.77401 3.14709 5.99727C3.14709 4.75249 4.14746 3.74999 5.47871 3.74999C6.23419 3.74999 6.96529 4.09567 7.43574 4.633Z" fill="#606483" stroke="#606483" stroke-width="1.5"/>
</svg>
