<svg width="140" height="26" viewBox="0 0 140 26" fill="none" xmlns="http://www.w3.org/2000/svg">
<rect y="9" width="104" height="8" rx="4" fill="#EEF2F4"/>
<rect width="50" height="8" transform="translate(0 9)" fill="#606483"/>
<path d="M114.656 15.2955V14.2301L118.428 8.27273H119.267V9.84091H118.734L116.037 14.1108V14.179H121.206V15.2955H114.656ZM118.794 17V14.9716L118.803 14.4858V8.27273H120.051V17H118.794ZM125.64 17.1193C125.029 17.1193 124.489 17.0142 124.021 16.804C123.555 16.5937 123.19 16.304 122.925 15.9347C122.661 15.5653 122.531 15.1449 122.533 14.6733C122.531 14.304 122.606 13.9645 122.759 13.6548C122.915 13.3423 123.127 13.0824 123.394 12.875C123.661 12.6648 123.96 12.5312 124.289 12.4744V12.4233C123.854 12.3182 123.506 12.0852 123.245 11.7244C122.984 11.3636 122.854 10.9489 122.857 10.4801C122.854 10.0341 122.972 9.63636 123.211 9.28693C123.452 8.93466 123.783 8.65767 124.204 8.45597C124.624 8.25426 125.103 8.15341 125.64 8.15341C126.171 8.15341 126.646 8.25568 127.063 8.46023C127.484 8.66193 127.815 8.93892 128.056 9.29119C128.298 9.64062 128.42 10.0369 128.423 10.4801C128.42 10.9489 128.286 11.3636 128.022 11.7244C127.758 12.0852 127.414 12.3182 126.991 12.4233V12.4744C127.317 12.5312 127.612 12.6648 127.873 12.875C128.137 13.0824 128.347 13.3423 128.504 13.6548C128.663 13.9645 128.744 14.304 128.746 14.6733C128.744 15.1449 128.61 15.5653 128.346 15.9347C128.082 16.304 127.715 16.5937 127.246 16.804C126.781 17.0142 126.245 17.1193 125.64 17.1193ZM125.64 16.0412C126.001 16.0412 126.313 15.9815 126.577 15.8622C126.842 15.7401 127.046 15.571 127.191 15.3551C127.336 15.1364 127.41 14.8807 127.413 14.5881C127.41 14.2841 127.33 14.0156 127.174 13.7827C127.021 13.5497 126.812 13.3665 126.548 13.233C126.283 13.0994 125.981 13.0327 125.64 13.0327C125.296 13.0327 124.991 13.0994 124.724 13.233C124.457 13.3665 124.246 13.5497 124.093 13.7827C123.94 14.0156 123.864 14.2841 123.867 14.5881C123.864 14.8807 123.934 15.1364 124.076 15.3551C124.221 15.571 124.427 15.7401 124.694 15.8622C124.961 15.9815 125.276 16.0412 125.64 16.0412ZM125.64 11.9801C125.93 11.9801 126.187 11.9219 126.411 11.8054C126.636 11.6889 126.812 11.527 126.94 11.3196C127.07 11.1122 127.137 10.8693 127.14 10.5909C127.137 10.3182 127.072 10.0795 126.944 9.875C126.819 9.67045 126.644 9.51278 126.42 9.40199C126.195 9.28835 125.935 9.23153 125.64 9.23153C125.339 9.23153 125.075 9.28835 124.847 9.40199C124.623 9.51278 124.448 9.67045 124.323 9.875C124.198 10.0795 124.137 10.3182 124.14 10.5909C124.137 10.8693 124.2 11.1122 124.327 11.3196C124.455 11.527 124.631 11.6889 124.856 11.8054C125.083 11.9219 125.344 11.9801 125.64 11.9801ZM134.828 15.3636V14.9034C134.828 14.5739 134.897 14.2727 135.033 14C135.172 13.7244 135.374 13.5043 135.638 13.3395C135.905 13.1719 136.228 13.0881 136.605 13.0881C136.992 13.0881 137.316 13.1705 137.577 13.3352C137.838 13.5 138.036 13.7202 138.169 13.9957C138.306 14.2713 138.374 14.5739 138.374 14.9034V15.3636C138.374 15.6932 138.306 15.9957 138.169 16.2713C138.033 16.544 137.833 16.7642 137.569 16.9318C137.307 17.0966 136.986 17.179 136.605 17.179C136.222 17.179 135.898 17.0966 135.634 16.9318C135.37 16.7642 135.169 16.544 135.033 16.2713C134.897 15.9957 134.828 15.6932 134.828 15.3636ZM135.821 14.9034V15.3636C135.821 15.608 135.88 15.8295 135.996 16.0284C136.113 16.2273 136.316 16.3267 136.605 16.3267C136.892 16.3267 137.093 16.2273 137.206 16.0284C137.32 15.8295 137.377 15.608 137.377 15.3636V14.9034C137.377 14.6591 137.321 14.4375 137.211 14.2386C137.103 14.0398 136.901 13.9403 136.605 13.9403C136.321 13.9403 136.12 14.0398 136 14.2386C135.881 14.4375 135.821 14.6591 135.821 14.9034ZM130.439 10.3693V9.90909C130.439 9.57955 130.507 9.27699 130.644 9.00142C130.783 8.72585 130.985 8.50568 131.249 8.34091C131.516 8.17614 131.838 8.09375 132.216 8.09375C132.603 8.09375 132.926 8.17614 133.188 8.34091C133.449 8.50568 133.647 8.72585 133.78 9.00142C133.914 9.27699 133.98 9.57955 133.98 9.90909V10.3693C133.98 10.6989 133.912 11.0014 133.776 11.277C133.642 11.5497 133.444 11.7699 133.179 11.9375C132.918 12.1023 132.597 12.1847 132.216 12.1847C131.83 12.1847 131.505 12.1023 131.24 11.9375C130.979 11.7699 130.78 11.5497 130.644 11.277C130.507 11.0014 130.439 10.6989 130.439 10.3693ZM131.436 9.90909V10.3693C131.436 10.6136 131.493 10.8352 131.607 11.0341C131.723 11.233 131.926 11.3324 132.216 11.3324C132.5 11.3324 132.699 11.233 132.813 11.0341C132.929 10.8352 132.988 10.6136 132.988 10.3693V9.90909C132.988 9.66477 132.932 9.44318 132.821 9.24432C132.711 9.04545 132.509 8.94602 132.216 8.94602C131.932 8.94602 131.73 9.04545 131.611 9.24432C131.495 9.44318 131.436 9.66477 131.436 9.90909ZM130.844 17L136.844 8.27273H137.863L131.863 17H130.844Z" fill="#606483"/>
</svg>
